<svg width="234" height="37" viewBox="0 0 234 37" fill="none" xmlns="http://www.w3.org/2000/svg">
<path d="M62.9328 2.5556e-05C69.6157 2.5556e-05 72.9571 3.02521 72.9571 9.07557V11.6686C72.9571 17.719 69.6157 20.7441 62.9328 20.7441H59.1737V33.7092C59.1737 34.418 59.1737 35.8013 59.1737 36.3022C58.1218 36.3022 56.9098 36.3022 56.0411 36.3022C55.1723 36.3022 53.8736 36.3022 52.9082 36.3022C52.9082 35.3367 52.9085 34.418 52.9085 33.7092V2.59304C52.9085 1.88428 52.9085 0.772388 52.9082 1.38609e-06C53.8737 -8.79396e-07 55.1723 2.5556e-05 56.0411 2.5556e-05H62.9328ZM66.6919 9.07557C66.6919 6.48256 65.4389 5.18605 62.9328 5.18605H59.1737V15.5581H62.9328C65.4389 15.5581 66.6919 14.2616 66.6919 11.6686V9.07557Z" fill="white"/>
<path d="M85.8468 2.5556e-05C92.5297 2.5556e-05 95.8711 3.02521 95.8711 9.07557V11.6686C95.8711 14.4863 94.1397 16.6471 92.6861 18.1511C94.1397 19.655 95.8711 21.8159 95.8711 24.6337V33.7092C95.8711 34.418 95.8711 35.7229 95.8711 36.3022C94.8102 36.3022 93.6073 36.3022 92.7385 36.3022C91.8698 36.3022 90.369 36.3022 89.6059 36.3022C89.6059 35.3367 89.6059 34.418 89.6059 33.7092V24.6337C89.6059 22.0406 88.3529 20.7441 85.8468 20.7441H82.0877V33.7092C82.0877 34.418 82.0877 35.5502 82.0877 36.3022C80.9072 36.3022 79.8239 36.3022 78.9551 36.3022C78.0863 36.3022 76.6591 36.3022 75.8225 36.3022C75.8225 35.3367 75.8225 34.418 75.8225 33.7092V2.59304C75.8225 1.88428 75.8225 0.772388 75.8225 2.5556e-05C76.788 1.61416e-05 78.0863 2.5556e-05 78.9551 2.5556e-05H85.8468ZM89.6059 9.07557C89.6059 6.48256 88.3529 5.18605 85.8468 5.18605H82.0877V15.5581H85.8468C88.3529 15.5581 89.6059 14.2616 89.6059 11.6686V9.07557Z" fill="white"/>
<path d="M108.761 31.1162C111.267 31.1162 112.52 29.8197 112.52 27.2267V9.07557C112.52 6.48256 111.267 5.18605 108.761 5.18605C106.255 5.18605 105.002 6.48256 105.002 9.07557V27.2267C105.002 29.8197 106.255 31.1162 108.761 31.1162ZM118.785 27.2267C118.785 33.277 115.444 36.3022 108.761 36.3022C102.078 36.3022 98.7365 33.277 98.7365 27.2267V9.07557C98.7365 3.02521 102.078 2.5556e-05 108.761 2.5556e-05C115.444 2.5556e-05 118.785 3.02521 118.785 9.07557V27.2267Z" fill="white"/>
<path d="M141.699 27.2267C141.699 33.277 138.358 36.3022 131.675 36.3022H124.783C123.914 36.3022 123.195 36.3022 121.651 36.3022C121.651 35.3367 121.651 34.418 121.651 33.7092V2.59304C121.651 1.88428 121.651 0.965485 121.651 3.49707e-05C123.002 1.24836e-06 123.914 2.5556e-05 124.783 2.5556e-05H131.675C138.358 2.5556e-05 141.699 3.02521 141.699 9.07557V27.2267ZM131.675 31.1162C134.181 31.1162 135.434 29.8197 135.434 27.2267V9.07557C135.434 6.48256 134.181 5.18605 131.675 5.18605H127.916V31.1162H131.675Z" fill="white"/>
<path d="M144.565 2.59304C144.565 1.88428 144.629 0.579292 144.629 7.92346e-06C145.595 1.88809e-05 146.828 2.5556e-05 147.697 2.5556e-05C148.566 2.5556e-05 149.843 -1.4909e-06 150.83 3.49707e-05C150.83 1.15859 150.83 1.88428 150.83 2.59304V27.2267C150.83 29.8197 152.083 31.1162 154.589 31.1162C157.095 31.1162 158.348 29.8197 158.348 27.2267V2.59304C158.348 1.88428 158.348 0.77793 158.348 6.9384e-05C159.498 3.82858e-05 160.612 2.5556e-05 161.481 2.5556e-05C162.349 2.5556e-05 163.648 -3.19449e-05 164.613 2.5556e-05C164.613 1.35168 164.613 1.88428 164.613 2.59304V27.2267C164.613 33.277 161.272 36.3022 154.589 36.3022C147.906 36.3022 144.565 33.277 144.565 27.2267V2.59304Z" fill="white"/>
<path d="M196.658 5.18605H192.272C191.403 5.18605 190.2 5.21361 189.14 5.18605C189.14 4.35912 189.14 3.3018 189.14 2.59304C189.14 1.88428 189.14 0.772399 189.14 3.63748e-05C190.007 1.34891e-05 191.403 2.5556e-05 192.272 2.5556e-05H207.309C208.177 2.5556e-05 209.703 0 210.475 1.59571e-05C210.475 0.9655 210.441 1.88428 210.441 2.59304C210.441 3.3018 210.475 4.63432 210.441 5.18605C209.669 5.18605 208.177 5.18605 207.309 5.18605H202.923V33.7092C202.923 34.418 202.944 35.5298 202.923 36.3022C202.172 36.3022 200.659 36.3022 199.79 36.3022C198.922 36.3022 197.538 36.3022 196.658 36.3022C196.658 35.1436 196.658 34.418 196.658 33.7092V5.18605Z" fill="white"/>
<path d="M223.976 31.1162C221.47 31.1162 220.216 29.8197 220.216 27.2266V26.2611H213.951L213.951 27.2266C213.951 33.277 217.293 36.3022 223.976 36.3022C230.658 36.3022 234 33.277 234 27.2266C234 23.7693 231.703 20.312 227.108 16.8546C222.514 13.3973 220.216 10.8042 220.216 9.07555C220.216 6.48254 221.47 5.18603 223.976 5.18603C226.482 5.18603 227.735 6.48254 227.735 9.07555V10.041H234C234 9.65484 234 9.4198 234 9.07555C234 3.02518 230.658 0 223.976 0C217.293 0 213.951 3.02518 213.951 9.07555C213.951 12.5329 216.248 15.9903 220.843 19.4476C225.437 22.905 227.735 25.498 227.735 27.2266C227.735 29.8197 226.482 31.1162 223.976 31.1162Z" fill="white"/>
<path d="M29.1285 5.18604H24.7526C23.8858 5.18604 24.7304 5.21361 21.627 5.18604C21.627 4.05503 21.627 3.30178 21.627 2.59303C21.627 1.88427 21.6408 0.772388 21.6408 5.3163e-07C22.7994 -3.04741e-06 23.8858 1.26166e-05 24.7526 1.26166e-05H39.7558C40.6226 1.26166e-05 41.7229 1.93359e-06 42.8815 2.63359e-05C42.8815 2.31716 42.8815 1.88427 42.8815 2.59303C42.8815 3.30178 42.8815 4.24813 42.8815 5.21361C41.7229 5.21361 40.6226 5.18604 39.7558 5.18604H35.3799V33.7092C35.3799 34.418 35.3507 35.5298 35.3507 36.3022C34.1921 36.3022 33.1211 36.3022 32.2542 36.3022C31.3874 36.3022 30.1371 36.3022 29.1716 36.3022C29.1716 35.3367 29.1285 34.418 29.1285 33.7092V5.18604Z" fill="white"/>
<path d="M10.0021 36.3022C16.6702 36.3022 20.0042 33.277 20.0042 27.2266V26.2612H13.7529V27.2266C13.7529 29.8197 12.5027 31.1162 10.0021 31.1162C7.50159 31.1162 6.25133 29.8197 6.25133 27.2266V9.07555C6.25133 6.48254 7.50159 5.18603 10.0021 5.18603C12.5027 5.18603 13.7529 6.48254 13.7529 9.07555V10.041H20.0042V9.07555C20.0042 3.02518 16.6702 0 10.0021 0C3.33404 0 0 3.02518 0 9.07555V27.2266C0 33.277 3.33404 36.3022 10.0021 36.3022Z" fill="white"/>
<path d="M10.0021 36.3022C16.6702 36.3022 20.0042 33.277 20.0042 27.2266V26.2612H13.7529V27.2266C13.7529 29.8197 12.5027 31.1162 10.0021 31.1162C7.50159 31.1162 6.25133 29.8197 6.25133 27.2266V9.07555C6.25133 6.48254 7.50159 5.18603 10.0021 5.18603C12.5027 5.18603 13.7529 6.48254 13.7529 9.07555V10.041H20.0042V9.07555C20.0042 3.02518 16.6702 0 10.0021 0C3.33404 0 0 3.02518 0 9.07555V27.2266C0 33.277 3.33404 36.3022 10.0021 36.3022Z" fill="white"/>
<path d="M177.611 36.3022C184.279 36.3022 187.613 33.277 187.613 27.2266V26.2612H181.361V27.2266C181.361 29.8197 180.111 31.1162 177.611 31.1162C175.11 31.1162 173.86 29.8197 173.86 27.2266V9.07555C173.86 6.48254 175.11 5.18603 177.611 5.18603C180.111 5.18603 181.361 6.48254 181.361 9.07555V10.041H187.613V9.07555C187.613 3.02518 184.279 0 177.611 0C170.942 0 167.608 3.02518 167.608 9.07555V27.2266C167.608 33.277 170.942 36.3022 177.611 36.3022Z" fill="white"/>
<rect x="37.4609" y="21.627" width="13.5168" height="4.63432" fill="white"/>
</svg>
