<svg width="37" height="37" viewBox="0 0 37 37" fill="none" xmlns="http://www.w3.org/2000/svg">
<path d="M14.3578 11.6673C14.3575 12.3459 13.9428 12.9565 13.3093 13.2113C12.6757 13.466 11.9498 13.314 11.4738 12.827C10.9979 12.3399 10.867 11.615 11.1428 10.9942C11.4186 10.3733 12.046 9.9804 12.7293 10.0008C13.6368 10.0278 14.3583 10.7661 14.3578 11.6673ZM14.4082 14.5672H11.0504V25H14.4082V14.5672ZM19.7136 14.5672H16.3725V25H19.68V19.5253C19.68 16.4754 23.6842 16.1921 23.6842 19.5253V25H27V18.392C27 13.2506 21.0735 13.4423 19.68 15.9671L19.7136 14.5672Z" fill="white"/>
<circle cx="18.5" cy="18.5" r="17.5" stroke="white" stroke-width="2"/>
</svg>
