<svg width="20" height="16" viewBox="0 0 20 16" fill="none" xmlns="http://www.w3.org/2000/svg">
<path d="M6.93223 7.26844C7.94068 8.64707 9.41518 9.79338 11.1885 10.5773L12.141 9.54063C12.4577 9.19603 13.0555 9.08954 13.5337 9.29256C15.0487 9.93596 16.7229 10.3269 18.4694 10.4344C19.0295 10.4689 19.4614 10.8323 19.4614 11.269V15.0053C19.4614 15.4346 19.0438 15.7942 18.4945 15.8381C17.9239 15.8837 17.3482 15.9067 16.7691 15.9067C7.55041 15.9067 0.0771484 10.0968 0.0771484 2.92994C0.0771484 2.47974 0.106677 2.03221 0.165336 1.58853C0.221776 1.16154 0.684457 0.836914 1.23659 0.836914H6.04256C6.60436 0.836914 7.07176 1.17267 7.1161 1.60806C7.25434 2.96584 7.75729 4.2675 8.58489 5.44528C8.84604 5.81697 8.70905 6.28174 8.2658 6.5279L6.93223 7.26844ZM4.21703 6.71848L6.26309 5.58229C5.68293 4.60866 5.28535 3.57612 5.0818 2.51133H2.24072C2.23421 2.65058 2.23095 2.79012 2.23095 2.92994C2.23095 9.172 8.73996 14.2323 16.7691 14.2323C16.949 14.2323 17.1285 14.2298 17.3076 14.2246V12.0159C15.938 11.8577 14.6098 11.5486 13.3574 11.0976L11.8959 12.6883C11.3047 12.5097 10.7337 12.2996 10.1865 12.0606L10.1239 12.0329C8.01359 11.1 6.26001 9.7367 5.05997 8.0961L5.02437 8.04746C4.71697 7.62199 4.44672 7.1781 4.21703 6.71848Z" fill="black"/>
</svg>
