<svg width="19" height="17" viewBox="0 0 19 17" fill="none" xmlns="http://www.w3.org/2000/svg">
<path d="M14.3491 7.09318L18.0328 16.3025H16.2286L15.2232 13.7909H11.799L10.7952 16.3025H8.99181L12.6747 7.09318H14.3491ZM7.23283 0.395508V2.06993H12.2561V3.74434L10.6086 3.74485C9.94748 5.72532 8.90625 7.51656 7.57734 9.0196C8.18256 9.55935 8.83776 10.0381 9.53306 10.4486L8.90465 12.0206C8.00616 11.5121 7.16539 10.9045 6.3953 10.2117C4.90039 11.5572 3.13816 12.5813 1.20401 13.1825L0.754982 11.5674C2.40925 11.0451 3.92203 10.1688 5.21551 9.02052C4.27143 7.95392 3.4727 6.74143 2.85207 5.419L4.72693 5.41907C5.19856 6.2885 5.75917 7.09594 6.39535 7.82741C7.42397 6.64534 8.25464 5.26485 8.83148 3.74519L0.535156 3.74434V2.06993H5.55841V0.395508H7.23283ZM13.5119 9.5087L12.4679 12.1164H14.5542L13.5119 9.5087Z" fill="black"/>
</svg>
