<svg width="31" height="31" viewBox="0 0 31 31" fill="none" xmlns="http://www.w3.org/2000/svg">
<path d="M12.0207 9.76798C12.0204 10.3361 11.6732 10.8473 11.1428 11.0606C10.6124 11.2739 10.0046 11.1466 9.60618 10.7388C9.20772 10.3311 9.09809 9.72419 9.329 9.20439C9.55991 8.68459 10.0852 8.35566 10.6573 8.3727C11.417 8.39534 12.021 9.01344 12.0207 9.76798ZM12.0629 12.1958H9.25168V20.9302H12.0629V12.1958ZM16.5045 12.1958H13.7074V20.9302H16.4764V16.3467C16.4764 13.7933 19.8288 13.5561 19.8288 16.3467V20.9302H22.6048V15.3979C22.6048 11.0935 17.6431 11.254 16.4764 13.3678L16.5045 12.1958Z" fill="#0E7490"/>
<circle cx="15.4884" cy="15.4884" r="14.4884" stroke="#0E7490" stroke-width="2"/>
</svg>
