<svg width="89" height="89" viewBox="0 0 89 89" fill="none" xmlns="http://www.w3.org/2000/svg">
<path d="M44.5 89C19.9233 89 0 69.0765 0 44.5C0 19.9233 19.9233 0 44.5 0C69.0765 0 89 19.9233 89 44.5C89 69.0765 69.0765 89 44.5 89ZM38.3675 28.5449C38.0751 28.35 37.7315 28.246 37.38 28.246C36.397 28.246 35.6 29.0429 35.6 30.026V58.9741C35.6 59.3256 35.7041 59.6692 35.899 59.9615C36.4442 60.7794 37.5495 61.0006 38.3675 60.455L60.0786 45.981C60.2739 45.8506 60.4417 45.6828 60.5721 45.4875C61.1176 44.6695 60.8965 43.5642 60.0786 43.019L38.3675 28.5449Z" fill="white"/>
</svg>
