<svg width="28" height="28" viewBox="0 0 28 28" fill="none" xmlns="http://www.w3.org/2000/svg">
<path d="M3.76555 0.327546C5.76262 -0.38244 8.07824 0.0617916 9.6767 1.66026C11.4921 3.47565 11.8188 6.21602 10.6566 8.36428L28 25.7096L25.7096 28L8.36574 10.6558C6.21729 11.8189 3.47607 11.4926 1.66026 9.67671C0.0613425 8.0778 -0.382693 5.76131 0.32815 3.76385L3.95068 7.3863C4.89939 8.33501 6.43757 8.33501 7.38629 7.3863C8.335 6.43758 8.335 4.89939 7.38629 3.95068L3.76555 0.327546ZM20.5562 3.37807L25.7096 0.51506L28 2.80547L25.1369 7.9589L22.274 8.5315L18.8383 11.9671L16.5479 9.67671L19.9835 6.24109L20.5562 3.37807ZM9.6767 16.5479L11.9671 18.8384L3.37807 27.4275C2.74559 28.0599 1.72013 28.0599 1.08766 27.4275C0.500358 26.8401 0.458411 25.914 0.961805 25.2783L1.08766 25.1371L9.6767 16.5479Z" fill="black"/>
</svg>
