<svg width="606" height="94" viewBox="0 0 606 94" fill="none" xmlns="http://www.w3.org/2000/svg">
<path d="M162.957 6.61739e-05C180.262 6.61739e-05 188.914 7.8334 188.914 23.5001V30.2144C188.914 45.881 180.262 53.7144 162.957 53.7144H153.224V87.2858C153.224 89.121 153.224 92.7031 153.224 94C150.5 94 147.362 94 145.112 94C142.863 94 139.5 94 137 94C137 91.5 137.001 89.121 137.001 87.2858V6.71435C137.001 4.87911 137.001 2 137 3.58911e-06C139.5 -2.27709e-06 142.863 6.61739e-05 145.112 6.61739e-05H162.957ZM172.691 23.5001C172.691 16.7858 169.447 13.4286 162.957 13.4286H153.224V40.2858H162.957C169.447 40.2858 172.691 36.9286 172.691 30.2144V23.5001Z" fill="#B4B5B5"/>
<path d="M222.29 6.61739e-05C239.595 6.61739e-05 248.247 7.8334 248.247 23.5001V30.2144C248.247 37.5105 243.764 43.1057 240 47C243.764 50.8943 248.247 56.4896 248.247 63.7858V87.2858C248.247 89.121 248.247 92.5 248.247 94C245.5 94 242.385 94 240.136 94C237.886 94 234 94 232.024 94C232.024 91.5 232.024 89.121 232.024 87.2858V63.7858C232.024 57.0715 228.78 53.7144 222.29 53.7144H212.557V87.2858C212.557 89.121 212.557 92.0529 212.557 94C209.5 94 206.695 94 204.445 94C202.196 94 198.5 94 196.334 94C196.334 91.5 196.334 89.121 196.334 87.2858V6.71435C196.334 4.87911 196.334 2 196.334 6.61739e-05C198.834 4.17967e-05 202.196 6.61739e-05 204.445 6.61739e-05H222.29ZM232.024 23.5001C232.024 16.7858 228.78 13.4286 222.29 13.4286H212.557V40.2858H222.29C228.78 40.2858 232.024 36.9286 232.024 30.2144V23.5001Z" fill="#B4B5B5"/>
<path d="M281.623 80.5715C288.113 80.5715 291.357 77.2143 291.357 70.5V23.5001C291.357 16.7858 288.113 13.4286 281.623 13.4286C275.134 13.4286 271.89 16.7858 271.89 23.5001V70.5C271.89 77.2143 275.134 80.5715 281.623 80.5715ZM307.58 70.5C307.58 86.1667 298.928 94 281.623 94C264.319 94 255.667 86.1667 255.667 70.5V23.5001C255.667 7.8334 264.319 6.61739e-05 281.623 6.61739e-05C298.928 6.61739e-05 307.58 7.8334 307.58 23.5001V70.5Z" fill="#B4B5B5"/>
<path d="M366.913 70.5C366.913 86.1667 358.261 94 340.956 94H323.111C320.862 94 319 94 315 94C315 91.5 315 89.121 315 87.2858V6.71435C315 4.87911 315 2.5 315 9.05522e-05C318.5 3.23246e-06 320.862 6.61739e-05 323.111 6.61739e-05H340.956C358.261 6.61739e-05 366.913 7.8334 366.913 23.5001V70.5ZM340.956 80.5715C347.446 80.5715 350.69 77.2143 350.69 70.5V23.5001C350.69 16.7858 347.446 13.4286 340.956 13.4286H331.223V80.5715H340.956Z" fill="#B4B5B5"/>
<path d="M374.333 6.71435C374.333 4.87911 374.5 1.5 374.5 2.05168e-05C377 4.88897e-05 380.195 6.61739e-05 382.444 6.61739e-05C384.694 6.61739e-05 388 -3.86049e-06 390.556 9.05522e-05C390.556 3.00003 390.556 4.87911 390.556 6.71435V70.5C390.556 77.2143 393.8 80.5715 400.289 80.5715C406.779 80.5715 410.023 77.2143 410.023 70.5V6.71435C410.023 4.87911 410.023 2.01435 410.023 0.000179661C413 9.91363e-05 415.885 6.61739e-05 418.135 6.61739e-05C420.384 6.61739e-05 423.746 -8.27174e-05 426.246 6.61739e-05C426.246 3.5 426.246 4.87911 426.246 6.71435V70.5C426.246 86.1667 417.594 94 400.289 94C382.985 94 374.333 86.1667 374.333 70.5V6.71435Z" fill="#B4B5B5"/>
<path d="M509.222 13.4286H497.866C495.616 13.4286 492.5 13.5 489.754 13.4286C489.754 11.2874 489.754 8.54959 489.754 6.71435C489.754 4.87911 489.754 2.00003 489.754 9.41881e-05C492 3.49283e-05 495.616 6.61739e-05 497.866 6.61739e-05H536.801C539.05 6.61739e-05 543 0 545 4.13189e-05C545 2.50004 544.912 4.87911 544.912 6.71435C544.912 8.54959 545 12 544.912 13.4286C542.912 13.4286 539.05 13.4286 536.801 13.4286H525.445V87.2858C525.445 89.121 525.5 92 525.445 94C523.5 94 519.583 94 517.333 94C515.084 94 511.5 94 509.222 94C509.222 91 509.222 89.121 509.222 87.2858V13.4286Z" fill="#B4B5B5"/>
<path d="M579.957 80.5714C573.468 80.5714 570.223 77.2143 570.223 70.5V67.9999H554L554 70.5C554 86.1666 562.652 94 579.957 94C597.261 94 605.914 86.1666 605.914 70.5C605.914 61.5476 599.965 52.5953 588.068 43.6429C576.172 34.6905 570.223 27.9762 570.223 23.5C570.223 16.7857 573.468 13.4286 579.957 13.4286C586.446 13.4286 589.691 16.7857 589.691 23.5V25.9999H605.914C605.913 25 605.914 24.3914 605.914 23.5C605.914 7.83333 597.261 0 579.957 0C562.652 0 554 7.83333 554 23.5C554 32.4524 559.949 41.4048 571.845 50.3572C583.742 59.3095 589.691 66.0238 589.691 70.5C589.691 77.2143 586.446 80.5714 579.957 80.5714Z" fill="#B4B5B5"/>
<path d="M75.4244 13.4286H64.0935C61.8489 13.4286 64.0359 13.5 56 13.4286C56 10.5 56 8.54956 56 6.71432C56 4.87908 56.0359 2 56.0359 1.37659e-06C59.0359 -7.89089e-06 61.8489 3.2669e-05 64.0935 3.2669e-05H102.942C105.187 3.2669e-05 108.036 5.00679e-06 111.036 6.81934e-05C111.036 6 111.036 4.87908 111.036 6.71432C111.036 8.54956 111.036 11 111.036 13.5C108.036 13.5 105.187 13.4286 102.942 13.4286H91.6115V87.2858C91.6115 89.121 91.5359 92 91.5359 94C88.5359 94 85.7625 94 83.5179 94C81.2733 94 78.0359 94 75.5359 94C75.5359 91.5 75.4244 89.121 75.4244 87.2858V13.4286Z" fill="#B4B5B5"/>
<path d="M25.8992 94C43.1654 94 51.7985 86.1667 51.7985 70.5V68H35.6115V70.5C35.6115 77.2143 32.3741 80.5714 25.8992 80.5714C19.4244 80.5714 16.187 77.2143 16.187 70.5V23.5C16.187 16.7857 19.4244 13.4286 25.8992 13.4286C32.3741 13.4286 35.6115 16.7857 35.6115 23.5V26H51.7985V23.5C51.7985 7.83333 43.1654 0 25.8992 0C8.63308 0 0 7.83333 0 23.5V70.5C0 86.1667 8.63308 94 25.8992 94Z" fill="#B4B5B5"/>
<path d="M25.8992 94C43.1654 94 51.7985 86.1667 51.7985 70.5V68H35.6115V70.5C35.6115 77.2143 32.3741 80.5714 25.8992 80.5714C19.4244 80.5714 16.187 77.2143 16.187 70.5V23.5C16.187 16.7857 19.4244 13.4286 25.8992 13.4286C32.3741 13.4286 35.6115 16.7857 35.6115 23.5V26H51.7985V23.5C51.7985 7.83333 43.1654 0 25.8992 0C8.63308 0 0 7.83333 0 23.5V70.5C0 86.1667 8.63308 94 25.8992 94Z" fill="#B4B5B5"/>
<path d="M459.899 94C477.165 94 485.798 86.1667 485.798 70.5V68H469.611V70.5C469.611 77.2143 466.374 80.5714 459.899 80.5714C453.424 80.5714 450.187 77.2143 450.187 70.5V23.5C450.187 16.7857 453.424 13.4286 459.899 13.4286C466.374 13.4286 469.611 16.7857 469.611 23.5V26H485.798V23.5C485.798 7.83333 477.165 0 459.899 0C442.633 0 434 7.83333 434 23.5V70.5C434 86.1667 442.633 94 459.899 94Z" fill="#B4B5B5"/>
<rect x="97" y="56" width="35" height="12" fill="#B4B5B5"/>
</svg>
