<svg width="421" height="236" viewBox="0 0 421 236" fill="none" xmlns="http://www.w3.org/2000/svg">
<rect x="103.752" y="149.955" width="5.53341" height="5.53341" fill="#DBD9D9"/>
<rect x="103.752" y="57.5472" width="5.53341" height="5.81009" fill="#DBD9D9"/>
<rect x="287.738" y="149.955" width="5.81009" height="5.53341" fill="#DBD9D9"/>
<rect x="195.606" y="149.955" width="5.81009" height="5.53341" fill="#DBD9D9"/>
<rect x="195.606" y="57.5472" width="5.81009" height="5.81009" fill="#DBD9D9"/>
<rect x="379.592" y="149.955" width="5.81009" height="5.53341" fill="#DBD9D9"/>
<rect x="103.752" y="196.16" width="5.53341" height="5.53341" fill="#DBD9D9"/>
<rect x="103.752" y="103.752" width="5.53341" height="5.81009" fill="#DBD9D9"/>
<rect x="287.738" y="196.16" width="5.81009" height="5.53341" fill="#DBD9D9"/>
<rect x="287.738" y="103.752" width="5.81009" height="5.81009" fill="#DBD9D9"/>
<rect x="195.606" y="11.8967" width="5.81009" height="5.53341" fill="#DBD9D9"/>
<rect x="195.606" y="196.16" width="5.81009" height="5.53341" fill="#DBD9D9"/>
<rect x="195.606" y="103.752" width="5.81009" height="5.81009" fill="#DBD9D9"/>
<rect x="379.592" y="103.752" width="5.81009" height="5.81009" fill="#DBD9D9"/>
<rect x="103.752" y="172.642" width="5.53341" height="5.81009" fill="#DBD9D9"/>
<rect x="103.752" y="80.7877" width="5.53341" height="5.81009" fill="#DBD9D9"/>
<rect x="287.738" y="172.642" width="5.81009" height="5.81009" fill="#DBD9D9"/>
<rect x="287.738" y="80.7877" width="5.81009" height="5.81009" fill="#DBD9D9"/>
<rect x="195.606" y="172.642" width="5.81009" height="5.81009" fill="#DBD9D9"/>
<rect x="195.606" y="80.7877" width="5.81009" height="5.81009" fill="#DBD9D9"/>
<rect x="11.3435" y="80.7877" width="5.81009" height="5.81009" fill="#DBD9D9"/>
<rect x="103.752" y="34.8608" width="5.53341" height="5.81009" fill="#DBD9D9"/>
<rect x="103.752" y="126.715" width="5.53341" height="5.81009" fill="#DBD9D9"/>
<rect x="287.738" y="218.847" width="5.81009" height="5.81009" fill="#DBD9D9"/>
<rect x="287.738" y="126.715" width="5.81009" height="5.81009" fill="#DBD9D9"/>
<rect x="195.606" y="34.8608" width="5.81009" height="5.81009" fill="#DBD9D9"/>
<rect x="195.606" y="126.715" width="5.81009" height="5.81009" fill="#DBD9D9"/>
<rect x="379.592" y="126.715" width="5.81009" height="5.81009" fill="#DBD9D9"/>
<rect x="115.095" y="149.955" width="5.53341" height="5.53341" fill="#DBD9D9"/>
<rect x="115.095" y="57.5472" width="5.53341" height="5.81009" fill="#DBD9D9"/>
<rect x="299.358" y="149.955" width="5.53341" height="5.53341" fill="#DBD9D9"/>
<rect x="299.358" y="57.5472" width="5.53341" height="5.81009" fill="#DBD9D9"/>
<rect x="207.227" y="149.955" width="5.81009" height="5.53341" fill="#DBD9D9"/>
<rect x="207.227" y="57.5472" width="5.81009" height="5.81009" fill="#DBD9D9"/>
<rect x="22.9636" y="57.5472" width="5.81009" height="5.81009" fill="#DBD9D9"/>
<rect x="391.213" y="149.955" width="6.08676" height="5.53341" fill="#DBD9D9"/>
<rect x="115.095" y="196.16" width="5.53341" height="5.53341" fill="#DBD9D9"/>
<rect x="115.095" y="103.752" width="5.53341" height="5.81009" fill="#DBD9D9"/>
<rect x="299.358" y="196.16" width="5.53341" height="5.53341" fill="#DBD9D9"/>
<rect x="299.358" y="103.752" width="5.53341" height="5.81009" fill="#DBD9D9"/>
<rect x="207.227" y="196.16" width="5.81009" height="5.53341" fill="#DBD9D9"/>
<rect x="207.227" y="103.752" width="5.81009" height="5.81009" fill="#DBD9D9"/>
<rect x="22.9636" y="103.752" width="5.81009" height="5.81009" fill="#DBD9D9"/>
<rect x="391.213" y="103.752" width="6.08676" height="5.81009" fill="#DBD9D9"/>
<rect x="115.095" y="172.642" width="5.53341" height="5.81009" fill="#DBD9D9"/>
<rect x="115.095" y="80.7877" width="5.53341" height="5.81009" fill="#DBD9D9"/>
<rect x="299.358" y="172.642" width="5.53341" height="5.81009" fill="#DBD9D9"/>
<rect x="299.358" y="80.7877" width="5.53341" height="5.81009" fill="#DBD9D9"/>
<rect x="207.227" y="172.642" width="5.81009" height="5.81009" fill="#DBD9D9"/>
<rect x="207.227" y="80.7877" width="5.81009" height="5.81009" fill="#DBD9D9"/>
<rect x="22.9636" y="80.7877" width="5.81009" height="5.81009" fill="#DBD9D9"/>
<rect x="115.095" y="34.8608" width="5.53341" height="5.81009" fill="#DBD9D9"/>
<rect x="115.095" y="218.847" width="5.53341" height="5.81009" fill="#DBD9D9"/>
<rect x="115.095" y="126.715" width="5.53341" height="5.81009" fill="#DBD9D9"/>
<rect x="299.358" y="218.847" width="5.53341" height="5.81009" fill="#DBD9D9"/>
<rect x="299.358" y="126.715" width="5.53341" height="5.81009" fill="#DBD9D9"/>
<rect x="207.227" y="34.8608" width="5.81009" height="5.81009" fill="#DBD9D9"/>
<rect x="207.227" y="126.715" width="5.81009" height="5.81009" fill="#DBD9D9"/>
<rect x="22.9636" y="126.715" width="5.81009" height="5.81009" fill="#DBD9D9"/>
<rect x="391.213" y="126.715" width="6.08676" height="5.81009" fill="#DBD9D9"/>
<rect x="126.438" y="149.955" width="5.81009" height="5.53341" fill="#DBD9D9"/>
<rect x="126.438" y="57.5472" width="5.81009" height="5.81009" fill="#DBD9D9"/>
<rect x="310.978" y="149.955" width="5.81009" height="5.53341" fill="#DBD9D9"/>
<rect x="310.978" y="57.5472" width="5.81009" height="5.81009" fill="#DBD9D9"/>
<rect x="218.57" y="149.955" width="6.08676" height="5.53341" fill="#DBD9D9"/>
<rect x="34.584" y="149.955" width="5.81009" height="5.53341" fill="#DBD9D9"/>
<rect x="218.57" y="57.5472" width="6.08676" height="5.81009" fill="#DBD9D9"/>
<rect x="34.584" y="57.5472" width="5.81009" height="5.81009" fill="#DBD9D9"/>
<rect x="126.438" y="196.16" width="5.81009" height="5.53341" fill="#DBD9D9"/>
<rect x="126.438" y="103.752" width="5.81009" height="5.81009" fill="#DBD9D9"/>
<rect x="310.978" y="196.16" width="5.81009" height="5.53341" fill="#DBD9D9"/>
<rect x="310.978" y="103.752" width="5.81009" height="5.81009" fill="#DBD9D9"/>
<rect x="218.57" y="196.16" width="6.08676" height="5.53341" fill="#DBD9D9"/>
<rect x="218.57" y="103.752" width="6.08676" height="5.81009" fill="#DBD9D9"/>
<rect x="34.584" y="103.752" width="5.81009" height="5.81009" fill="#DBD9D9"/>
<rect x="126.438" y="172.642" width="5.81009" height="5.81009" fill="#DBD9D9"/>
<rect x="126.438" y="80.7877" width="5.81009" height="5.81009" fill="#DBD9D9"/>
<rect x="310.978" y="172.642" width="5.81009" height="5.81009" fill="#DBD9D9"/>
<rect x="310.978" y="80.7877" width="5.81009" height="5.81009" fill="#DBD9D9"/>
<rect x="218.57" y="172.642" width="6.08676" height="5.81009" fill="#DBD9D9"/>
<rect x="218.57" y="80.7877" width="6.08676" height="5.81009" fill="#DBD9D9"/>
<rect x="34.584" y="80.7877" width="5.81009" height="5.81009" fill="#DBD9D9"/>
<rect x="126.438" y="34.8608" width="5.81009" height="5.81009" fill="#DBD9D9"/>
<rect x="126.438" y="218.847" width="5.81009" height="5.81009" fill="#DBD9D9"/>
<rect x="126.438" y="126.715" width="5.81009" height="5.81009" fill="#DBD9D9"/>
<rect x="310.978" y="126.715" width="5.81009" height="5.81009" fill="#DBD9D9"/>
<rect x="218.57" y="34.8608" width="6.08676" height="5.81009" fill="#DBD9D9"/>
<rect x="218.57" y="126.715" width="6.08676" height="5.81009" fill="#DBD9D9"/>
<rect x="34.584" y="126.715" width="5.81009" height="5.81009" fill="#DBD9D9"/>
<rect x="403.109" y="126.715" width="5.81009" height="5.81009" fill="#DBD9D9"/>
<rect x="138.335" y="149.955" width="5.81009" height="5.53341" fill="#DBD9D9"/>
<rect x="138.335" y="57.5472" width="5.81009" height="5.81009" fill="#DBD9D9"/>
<rect x="322.598" y="149.955" width="5.53341" height="5.53341" fill="#DBD9D9"/>
<rect x="230.19" y="149.955" width="5.81009" height="5.53341" fill="#DBD9D9"/>
<rect x="46.2039" y="149.955" width="5.81009" height="5.53341" fill="#DBD9D9"/>
<rect x="230.19" y="57.5472" width="5.81009" height="5.81009" fill="#DBD9D9"/>
<rect x="46.2039" y="57.5472" width="5.81009" height="5.81009" fill="#DBD9D9"/>
<rect x="138.335" y="11.8967" width="5.81009" height="5.53341" fill="#DBD9D9"/>
<rect x="138.335" y="196.16" width="5.81009" height="5.53341" fill="#DBD9D9"/>
<rect x="138.335" y="103.752" width="5.81009" height="5.81009" fill="#DBD9D9"/>
<rect x="322.598" y="196.16" width="5.53341" height="5.53341" fill="#DBD9D9"/>
<rect x="322.598" y="103.752" width="5.53341" height="5.81009" fill="#DBD9D9"/>
<rect x="230.19" y="196.16" width="5.81009" height="5.53341" fill="#DBD9D9"/>
<rect x="230.19" y="103.752" width="5.81009" height="5.81009" fill="#DBD9D9"/>
<rect x="46.2039" y="103.752" width="5.81009" height="5.81009" fill="#DBD9D9"/>
<rect x="138.335" y="172.642" width="5.81009" height="5.81009" fill="#DBD9D9"/>
<rect x="138.335" y="80.7877" width="5.81009" height="5.81009" fill="#DBD9D9"/>
<rect x="322.598" y="172.642" width="5.53341" height="5.81009" fill="#DBD9D9"/>
<rect x="322.598" y="80.7877" width="5.53341" height="5.81009" fill="#DBD9D9"/>
<rect x="230.19" y="172.642" width="5.81009" height="5.81009" fill="#DBD9D9"/>
<rect x="230.19" y="80.7877" width="5.81009" height="5.81009" fill="#DBD9D9"/>
<rect x="46.2039" y="80.7877" width="5.81009" height="5.81009" fill="#DBD9D9"/>
<rect x="138.335" y="34.8608" width="5.81009" height="5.81009" fill="#DBD9D9"/>
<rect x="138.335" y="218.847" width="5.81009" height="5.81009" fill="#DBD9D9"/>
<rect x="138.335" y="126.715" width="5.81009" height="5.81009" fill="#DBD9D9"/>
<rect x="322.598" y="126.715" width="5.53341" height="5.81009" fill="#DBD9D9"/>
<rect x="230.19" y="34.8608" width="5.81009" height="5.81009" fill="#DBD9D9"/>
<rect x="230.19" y="126.715" width="5.81009" height="5.81009" fill="#DBD9D9"/>
<rect x="46.2039" y="126.715" width="5.81009" height="5.81009" fill="#DBD9D9"/>
<rect x="414.453" y="126.715" width="5.81009" height="5.81009" fill="#DBD9D9"/>
<rect x="149.956" y="149.955" width="5.81009" height="5.53341" fill="#DBD9D9"/>
<rect x="149.956" y="57.5472" width="5.81009" height="5.81009" fill="#DBD9D9"/>
<rect x="333.941" y="149.955" width="5.53341" height="5.53341" fill="#DBD9D9"/>
<rect x="241.81" y="149.955" width="5.81009" height="5.53341" fill="#DBD9D9"/>
<rect x="57.5476" y="149.955" width="5.81009" height="5.53341" fill="#DBD9D9"/>
<rect x="241.81" y="57.5472" width="5.81009" height="5.81009" fill="#DBD9D9"/>
<rect x="57.5476" y="57.5472" width="5.81009" height="5.81009" fill="#DBD9D9"/>
<rect x="149.956" y="11.8967" width="5.81009" height="5.53341" fill="#DBD9D9"/>
<rect x="149.956" y="196.16" width="5.81009" height="5.53341" fill="#DBD9D9"/>
<rect x="149.956" y="103.752" width="5.81009" height="5.81009" fill="#DBD9D9"/>
<rect x="333.941" y="196.16" width="5.53341" height="5.53341" fill="#DBD9D9"/>
<rect x="333.941" y="103.752" width="5.53341" height="5.81009" fill="#DBD9D9"/>
<rect x="241.81" y="196.16" width="5.81009" height="5.53341" fill="#DBD9D9"/>
<rect x="241.81" y="103.752" width="5.81009" height="5.81009" fill="#DBD9D9"/>
<rect x="57.5476" y="103.752" width="5.81009" height="5.81009" fill="#DBD9D9"/>
<rect x="149.956" y="172.642" width="5.81009" height="5.81009" fill="#DBD9D9"/>
<rect x="149.956" y="80.7877" width="5.81009" height="5.81009" fill="#DBD9D9"/>
<rect x="333.941" y="172.642" width="5.53341" height="5.81009" fill="#DBD9D9"/>
<rect x="333.941" y="80.7877" width="5.53341" height="5.81009" fill="#DBD9D9"/>
<rect x="241.81" y="172.642" width="5.81009" height="5.81009" fill="#DBD9D9"/>
<rect x="57.5476" y="172.642" width="5.81009" height="5.81009" fill="#DBD9D9"/>
<rect x="241.81" y="80.7877" width="5.81009" height="5.81009" fill="#DBD9D9"/>
<rect x="57.5476" y="80.7877" width="5.81009" height="5.81009" fill="#DBD9D9"/>
<rect x="149.956" y="34.8608" width="5.81009" height="5.81009" fill="#DBD9D9"/>
<rect x="149.956" y="218.847" width="5.81009" height="5.81009" fill="#DBD9D9"/>
<rect x="149.956" y="126.715" width="5.81009" height="5.81009" fill="#DBD9D9"/>
<rect x="333.941" y="126.715" width="5.53341" height="5.81009" fill="#DBD9D9"/>
<rect x="241.81" y="34.8608" width="5.81009" height="5.81009" fill="#DBD9D9"/>
<rect x="241.81" y="218.847" width="5.81009" height="5.81009" fill="#DBD9D9"/>
<rect x="241.81" y="126.715" width="5.81009" height="5.81009" fill="#DBD9D9"/>
<rect x="57.5476" y="126.715" width="5.81009" height="5.81009" fill="#DBD9D9"/>
<rect x="161.299" y="149.955" width="5.53341" height="5.53341" fill="#DBD9D9"/>
<rect x="161.299" y="57.5472" width="5.53341" height="5.81009" fill="#DBD9D9"/>
<rect x="345.285" y="149.955" width="5.81009" height="5.53341" fill="#DBD9D9"/>
<rect x="253.43" y="149.955" width="5.81009" height="5.53341" fill="#DBD9D9"/>
<rect x="69.1675" y="149.955" width="5.81009" height="5.53341" fill="#DBD9D9"/>
<rect x="253.43" y="57.5472" width="5.81009" height="5.81009" fill="#DBD9D9"/>
<rect x="69.1675" y="57.5472" width="5.81009" height="5.81009" fill="#DBD9D9"/>
<rect x="161.299" y="196.16" width="5.53341" height="5.53341" fill="#DBD9D9"/>
<rect x="161.299" y="103.752" width="5.53341" height="5.81009" fill="#DBD9D9"/>
<rect x="345.285" y="196.16" width="5.81009" height="5.53341" fill="#DBD9D9"/>
<rect x="345.285" y="103.752" width="5.81009" height="5.81009" fill="#DBD9D9"/>
<rect x="253.43" y="196.16" width="5.81009" height="5.53341" fill="#DBD9D9"/>
<rect x="253.43" y="103.752" width="5.81009" height="5.81009" fill="#DBD9D9"/>
<rect x="69.1675" y="103.752" width="5.81009" height="5.81009" fill="#DBD9D9"/>
<rect x="161.299" y="172.642" width="5.53341" height="5.81009" fill="#DBD9D9"/>
<rect x="161.299" y="80.7877" width="5.53341" height="5.81009" fill="#DBD9D9"/>
<rect x="345.285" y="172.642" width="5.81009" height="5.81009" fill="#DBD9D9"/>
<rect x="253.43" y="172.642" width="5.81009" height="5.81009" fill="#DBD9D9"/>
<rect x="69.1675" y="172.642" width="5.81009" height="5.81009" fill="#DBD9D9"/>
<rect x="253.43" y="80.7877" width="5.81009" height="5.81009" fill="#DBD9D9"/>
<rect x="69.1675" y="80.7877" width="5.81009" height="5.81009" fill="#DBD9D9"/>
<rect x="161.299" y="34.8608" width="5.53341" height="5.81009" fill="#DBD9D9"/>
<rect x="161.299" y="218.847" width="5.53341" height="5.81009" fill="#DBD9D9"/>
<rect x="161.299" y="126.715" width="5.53341" height="5.81009" fill="#DBD9D9"/>
<rect x="345.285" y="126.715" width="5.81009" height="5.81009" fill="#DBD9D9"/>
<rect x="253.43" y="34.8608" width="5.81009" height="5.81009" fill="#DBD9D9"/>
<rect x="253.43" y="218.847" width="5.81009" height="5.81009" fill="#DBD9D9"/>
<rect x="253.43" y="126.715" width="5.81009" height="5.81009" fill="#DBD9D9"/>
<rect x="69.1675" y="126.715" width="5.81009" height="5.81009" fill="#DBD9D9"/>
<rect x="172.643" y="149.955" width="5.81009" height="5.53341" fill="#DBD9D9"/>
<rect x="172.643" y="57.5472" width="5.81009" height="5.81009" fill="#DBD9D9"/>
<rect x="356.905" y="149.955" width="5.81009" height="5.53341" fill="#DBD9D9"/>
<rect x="265.051" y="149.955" width="5.53341" height="5.53341" fill="#DBD9D9"/>
<rect x="80.7878" y="149.955" width="5.53341" height="5.53341" fill="#DBD9D9"/>
<rect x="80.7878" y="57.5472" width="5.53341" height="5.81009" fill="#DBD9D9"/>
<rect x="172.643" y="196.16" width="5.81009" height="5.53341" fill="#DBD9D9"/>
<rect x="172.643" y="103.752" width="5.81009" height="5.81009" fill="#DBD9D9"/>
<rect x="356.905" y="196.16" width="5.81009" height="5.53341" fill="#DBD9D9"/>
<rect x="356.905" y="103.752" width="5.81009" height="5.81009" fill="#DBD9D9"/>
<rect x="265.051" y="196.16" width="5.53341" height="5.53341" fill="#DBD9D9"/>
<rect x="80.7878" y="196.16" width="5.53341" height="5.53341" fill="#DBD9D9"/>
<rect x="265.051" y="103.752" width="5.53341" height="5.81009" fill="#DBD9D9"/>
<rect x="80.7878" y="103.752" width="5.53341" height="5.81009" fill="#DBD9D9"/>
<rect x="172.643" y="172.642" width="5.81009" height="5.81009" fill="#DBD9D9"/>
<rect x="172.643" y="80.7877" width="5.81009" height="5.81009" fill="#DBD9D9"/>
<rect x="356.905" y="172.642" width="5.81009" height="5.81009" fill="#DBD9D9"/>
<rect x="265.051" y="172.642" width="5.53341" height="5.81009" fill="#DBD9D9"/>
<rect x="80.7878" y="172.642" width="5.53341" height="5.81009" fill="#DBD9D9"/>
<rect x="265.051" y="80.7877" width="5.53341" height="5.81009" fill="#DBD9D9"/>
<rect x="80.7878" y="80.7877" width="5.53341" height="5.81009" fill="#DBD9D9"/>
<rect x="172.643" y="34.8608" width="5.81009" height="5.81009" fill="#DBD9D9"/>
<rect x="172.643" y="126.715" width="5.81009" height="5.81009" fill="#DBD9D9"/>
<rect x="356.905" y="126.715" width="5.81009" height="5.81009" fill="#DBD9D9"/>
<rect x="265.051" y="34.8608" width="5.53341" height="5.81009" fill="#DBD9D9"/>
<rect x="80.7878" y="34.8608" width="5.53341" height="5.81009" fill="#DBD9D9"/>
<rect x="265.051" y="218.847" width="5.53341" height="5.81009" fill="#DBD9D9"/>
<rect x="265.051" y="126.715" width="5.53341" height="5.81009" fill="#DBD9D9"/>
<rect x="80.7878" y="126.715" width="5.53341" height="5.81009" fill="#DBD9D9"/>
<rect x="184.263" y="149.955" width="5.81009" height="5.53341" fill="#DBD9D9"/>
<rect x="184.263" y="57.5472" width="5.81009" height="5.81009" fill="#DBD9D9"/>
<rect x="368.525" y="149.955" width="5.53341" height="5.53341" fill="#DBD9D9"/>
<rect x="276.117" y="149.955" width="5.81009" height="5.53341" fill="#DBD9D9"/>
<rect x="92.1313" y="149.955" width="5.81009" height="5.53341" fill="#DBD9D9"/>
<rect x="92.1313" y="57.5472" width="5.81009" height="5.81009" fill="#DBD9D9"/>
<rect x="184.263" y="11.8967" width="5.81009" height="5.53341" fill="#DBD9D9"/>
<rect x="184.263" y="196.16" width="5.81009" height="5.53341" fill="#DBD9D9"/>
<rect x="184.263" y="103.752" width="5.81009" height="5.81009" fill="#DBD9D9"/>
<rect x="368.525" y="103.752" width="5.53341" height="5.81009" fill="#DBD9D9"/>
<rect x="276.117" y="196.16" width="5.81009" height="5.53341" fill="#DBD9D9"/>
<rect x="92.1313" y="196.16" width="5.81009" height="5.53341" fill="#DBD9D9"/>
<rect x="276.117" y="103.752" width="5.81009" height="5.81009" fill="#DBD9D9"/>
<rect x="92.1313" y="103.752" width="5.81009" height="5.81009" fill="#DBD9D9"/>
<rect x="184.263" y="172.642" width="5.81009" height="5.81009" fill="#DBD9D9"/>
<rect x="184.263" y="80.7877" width="5.81009" height="5.81009" fill="#DBD9D9"/>
<rect x="368.525" y="172.642" width="5.53341" height="5.81009" fill="#DBD9D9"/>
<rect x="276.117" y="172.642" width="5.81009" height="5.81009" fill="#DBD9D9"/>
<rect x="92.1313" y="172.642" width="5.81009" height="5.81009" fill="#DBD9D9"/>
<rect x="276.117" y="80.7877" width="5.81009" height="5.81009" fill="#DBD9D9"/>
<rect x="92.1313" y="80.7877" width="5.81009" height="5.81009" fill="#DBD9D9"/>
<rect x="184.263" y="34.8608" width="5.81009" height="5.81009" fill="#DBD9D9"/>
<rect x="184.263" y="126.715" width="5.81009" height="5.81009" fill="#DBD9D9"/>
<rect x="368.525" y="126.715" width="5.53341" height="5.81009" fill="#DBD9D9"/>
<rect x="92.1313" y="34.8608" width="5.81009" height="5.81009" fill="#DBD9D9"/>
<rect x="276.117" y="126.715" width="5.81009" height="5.81009" fill="#DBD9D9"/>
<rect x="92.1313" y="126.715" width="5.81009" height="5.81009" fill="#DBD9D9"/>
<rect x="103.752" y="161.022" width="5.53341" height="5.81009" fill="#DBD9D9"/>
<rect x="103.752" y="69.1678" width="5.53341" height="5.81009" fill="#DBD9D9"/>
<rect x="287.738" y="161.022" width="5.81009" height="5.81009" fill="#DBD9D9"/>
<rect x="195.606" y="161.022" width="5.81009" height="5.81009" fill="#DBD9D9"/>
<rect x="195.606" y="69.1678" width="5.81009" height="5.81009" fill="#DBD9D9"/>
<rect x="11.3435" y="69.1678" width="5.81009" height="5.81009" fill="#DBD9D9"/>
<rect x="379.592" y="161.022" width="5.81009" height="5.81009" fill="#DBD9D9"/>
<rect x="103.752" y="207.503" width="5.53341" height="5.53341" fill="#DBD9D9"/>
<rect x="103.752" y="115.372" width="5.53341" height="5.81009" fill="#DBD9D9"/>
<rect x="287.738" y="207.503" width="5.81009" height="5.53341" fill="#DBD9D9"/>
<rect x="287.738" y="115.372" width="5.81009" height="5.81009" fill="#DBD9D9"/>
<rect x="195.606" y="23.2401" width="5.81009" height="5.81009" fill="#DBD9D9"/>
<rect x="195.606" y="115.372" width="5.81009" height="5.81009" fill="#DBD9D9"/>
<rect x="379.592" y="115.372" width="5.81009" height="5.81009" fill="#DBD9D9"/>
<rect x="103.752" y="184.539" width="5.53341" height="5.81009" fill="#DBD9D9"/>
<rect x="103.752" y="92.1316" width="5.53341" height="6.08676" fill="#DBD9D9"/>
<rect x="287.738" y="184.539" width="5.81009" height="5.81009" fill="#DBD9D9"/>
<rect x="287.738" y="92.1316" width="5.81009" height="6.08676" fill="#DBD9D9"/>
<rect x="195.606" y="184.539" width="5.81009" height="5.81009" fill="#DBD9D9"/>
<rect x="195.606" y="92.1316" width="5.81009" height="6.08676" fill="#DBD9D9"/>
<rect x="11.3435" y="92.1316" width="5.81009" height="6.08676" fill="#DBD9D9"/>
<rect x="103.752" y="46.2042" width="5.53341" height="5.53341" fill="#DBD9D9"/>
<rect x="103.752" y="138.335" width="5.53341" height="5.81009" fill="#DBD9D9"/>
<rect x="287.738" y="138.335" width="5.81009" height="5.81009" fill="#DBD9D9"/>
<rect x="195.606" y="46.2042" width="5.81009" height="5.53341" fill="#DBD9D9"/>
<rect x="195.606" y="138.335" width="5.81009" height="5.81009" fill="#DBD9D9"/>
<rect x="379.592" y="138.335" width="5.81009" height="5.81009" fill="#DBD9D9"/>
<rect x="115.095" y="161.022" width="5.53341" height="5.81009" fill="#DBD9D9"/>
<rect x="115.095" y="69.1678" width="5.53341" height="5.81009" fill="#DBD9D9"/>
<rect x="299.358" y="161.022" width="5.53341" height="5.81009" fill="#DBD9D9"/>
<rect x="299.358" y="69.1678" width="5.53341" height="5.81009" fill="#DBD9D9"/>
<rect x="207.227" y="161.022" width="5.81009" height="5.81009" fill="#DBD9D9"/>
<rect x="207.227" y="69.1678" width="5.81009" height="5.81009" fill="#DBD9D9"/>
<rect x="22.9636" y="69.1678" width="5.81009" height="5.81009" fill="#DBD9D9"/>
<rect x="115.095" y="23.2401" width="5.53341" height="5.81009" fill="#DBD9D9"/>
<rect x="115.095" y="207.503" width="5.53341" height="5.53341" fill="#DBD9D9"/>
<rect x="115.095" y="115.372" width="5.53341" height="5.81009" fill="#DBD9D9"/>
<rect x="299.358" y="207.503" width="5.53341" height="5.53341" fill="#DBD9D9"/>
<rect x="299.358" y="115.372" width="5.53341" height="5.81009" fill="#DBD9D9"/>
<rect x="207.227" y="23.2401" width="5.81009" height="5.81009" fill="#DBD9D9"/>
<rect x="207.227" y="115.372" width="5.81009" height="5.81009" fill="#DBD9D9"/>
<rect x="22.9636" y="115.372" width="5.81009" height="5.81009" fill="#DBD9D9"/>
<rect x="391.213" y="115.372" width="6.08676" height="5.81009" fill="#DBD9D9"/>
<rect x="115.095" y="184.539" width="5.53341" height="5.81009" fill="#DBD9D9"/>
<rect x="115.095" y="92.1316" width="5.53341" height="6.08676" fill="#DBD9D9"/>
<rect x="299.358" y="184.539" width="5.53341" height="5.81009" fill="#DBD9D9"/>
<rect x="299.358" y="92.1316" width="5.53341" height="6.08676" fill="#DBD9D9"/>
<rect x="207.227" y="184.539" width="5.81009" height="5.81009" fill="#DBD9D9"/>
<rect x="207.227" y="92.1316" width="5.81009" height="6.08676" fill="#DBD9D9"/>
<rect x="22.9636" y="92.1316" width="5.81009" height="6.08676" fill="#DBD9D9"/>
<rect x="115.095" y="46.2042" width="5.53341" height="5.53341" fill="#DBD9D9"/>
<rect x="115.095" y="230.467" width="5.53341" height="5.53341" fill="#DBD9D9"/>
<rect x="115.095" y="138.335" width="5.53341" height="5.81009" fill="#DBD9D9"/>
<rect x="299.358" y="230.467" width="5.53341" height="5.53341" fill="#DBD9D9"/>
<rect x="299.358" y="138.335" width="5.53341" height="5.81009" fill="#DBD9D9"/>
<rect x="207.227" y="46.2042" width="5.81009" height="5.53341" fill="#DBD9D9"/>
<rect x="207.227" y="138.335" width="5.81009" height="5.81009" fill="#DBD9D9"/>
<rect x="391.213" y="138.335" width="6.08676" height="5.81009" fill="#DBD9D9"/>
<rect x="126.438" y="161.022" width="5.81009" height="5.81009" fill="#DBD9D9"/>
<rect x="126.438" y="69.1678" width="5.81009" height="5.81009" fill="#DBD9D9"/>
<rect x="310.978" y="161.022" width="5.81009" height="5.81009" fill="#DBD9D9"/>
<rect x="310.978" y="69.1678" width="5.81009" height="5.81009" fill="#DBD9D9"/>
<rect x="218.57" y="161.022" width="6.08676" height="5.81009" fill="#DBD9D9"/>
<rect x="218.57" y="69.1678" width="6.08676" height="5.81009" fill="#DBD9D9"/>
<rect x="34.584" y="69.1678" width="5.81009" height="5.81009" fill="#DBD9D9"/>
<rect x="126.438" y="23.2401" width="5.81009" height="5.81009" fill="#DBD9D9"/>
<rect x="126.438" y="207.503" width="5.81009" height="5.53341" fill="#DBD9D9"/>
<rect x="126.438" y="115.372" width="5.81009" height="5.81009" fill="#DBD9D9"/>
<rect x="310.978" y="207.503" width="5.81009" height="5.53341" fill="#DBD9D9"/>
<rect x="310.978" y="115.372" width="5.81009" height="5.81009" fill="#DBD9D9"/>
<rect x="218.57" y="23.2401" width="6.08676" height="5.81009" fill="#DBD9D9"/>
<rect x="218.57" y="207.503" width="6.08676" height="5.53341" fill="#DBD9D9"/>
<rect x="218.57" y="115.372" width="6.08676" height="5.81009" fill="#DBD9D9"/>
<rect x="34.584" y="115.372" width="5.81009" height="5.81009" fill="#DBD9D9"/>
<rect x="403.109" y="115.372" width="5.81009" height="5.81009" fill="#DBD9D9"/>
<rect x="126.438" y="184.539" width="5.81009" height="5.81009" fill="#DBD9D9"/>
<rect x="126.438" y="92.1316" width="5.81009" height="6.08676" fill="#DBD9D9"/>
<rect x="310.978" y="184.539" width="5.81009" height="5.81009" fill="#DBD9D9"/>
<rect x="310.978" y="92.1316" width="5.81009" height="6.08676" fill="#DBD9D9"/>
<rect x="218.57" y="184.539" width="6.08676" height="5.81009" fill="#DBD9D9"/>
<rect x="218.57" y="92.1316" width="6.08676" height="6.08676" fill="#DBD9D9"/>
<rect x="34.584" y="92.1316" width="5.81009" height="6.08676" fill="#DBD9D9"/>
<rect x="126.438" y="46.2042" width="5.81009" height="5.53341" fill="#DBD9D9"/>
<rect x="126.438" y="230.467" width="5.81009" height="5.53341" fill="#DBD9D9"/>
<rect x="126.438" y="138.335" width="5.81009" height="5.81009" fill="#DBD9D9"/>
<rect x="310.978" y="138.335" width="5.81009" height="5.81009" fill="#DBD9D9"/>
<rect x="218.57" y="46.2042" width="6.08676" height="5.53341" fill="#DBD9D9"/>
<rect x="218.57" y="138.335" width="6.08676" height="5.81009" fill="#DBD9D9"/>
<rect x="34.584" y="138.335" width="5.81009" height="5.81009" fill="#DBD9D9"/>
<rect x="403.109" y="138.335" width="5.81009" height="5.81009" fill="#DBD9D9"/>
<rect x="138.335" y="161.022" width="5.81009" height="5.81009" fill="#DBD9D9"/>
<rect x="138.335" y="69.1678" width="5.81009" height="5.81009" fill="#DBD9D9"/>
<rect x="322.598" y="161.022" width="5.53341" height="5.81009" fill="#DBD9D9"/>
<rect x="322.598" y="69.1678" width="5.53341" height="5.81009" fill="#DBD9D9"/>
<rect x="230.19" y="161.022" width="5.81009" height="5.81009" fill="#DBD9D9"/>
<rect x="46.2039" y="161.022" width="5.81009" height="5.81009" fill="#DBD9D9"/>
<rect x="230.19" y="69.1678" width="5.81009" height="5.81009" fill="#DBD9D9"/>
<rect x="46.2039" y="69.1678" width="5.81009" height="5.81009" fill="#DBD9D9"/>
<rect x="138.335" y="23.2401" width="5.81009" height="5.81009" fill="#DBD9D9"/>
<rect x="138.335" y="207.503" width="5.81009" height="5.53341" fill="#DBD9D9"/>
<rect x="138.335" y="115.372" width="5.81009" height="5.81009" fill="#DBD9D9"/>
<rect x="322.598" y="207.503" width="5.53341" height="5.53341" fill="#DBD9D9"/>
<rect x="322.598" y="115.372" width="5.53341" height="5.81009" fill="#DBD9D9"/>
<rect x="230.19" y="23.2401" width="5.81009" height="5.81009" fill="#DBD9D9"/>
<rect x="230.19" y="207.503" width="5.81009" height="5.53341" fill="#DBD9D9"/>
<rect x="230.19" y="115.372" width="5.81009" height="5.81009" fill="#DBD9D9"/>
<rect x="46.2039" y="115.372" width="5.81009" height="5.81009" fill="#DBD9D9"/>
<rect x="138.335" width="5.81009" height="5.81009" fill="#DBD9D9"/>
<rect x="138.335" y="184.539" width="5.81009" height="5.81009" fill="#DBD9D9"/>
<rect x="138.335" y="92.1316" width="5.81009" height="6.08676" fill="#DBD9D9"/>
<rect x="322.598" y="184.539" width="5.53341" height="5.81009" fill="#DBD9D9"/>
<rect x="322.598" y="92.1316" width="5.53341" height="6.08676" fill="#DBD9D9"/>
<rect x="230.19" y="184.539" width="5.81009" height="5.81009" fill="#DBD9D9"/>
<rect x="230.19" y="92.1316" width="5.81009" height="6.08676" fill="#DBD9D9"/>
<rect x="46.2039" y="92.1316" width="5.81009" height="6.08676" fill="#DBD9D9"/>
<rect x="138.335" y="46.2042" width="5.81009" height="5.53341" fill="#DBD9D9"/>
<rect x="138.335" y="230.467" width="5.81009" height="5.53341" fill="#DBD9D9"/>
<rect x="138.335" y="138.335" width="5.81009" height="5.81009" fill="#DBD9D9"/>
<rect x="322.598" y="138.335" width="5.53341" height="5.81009" fill="#DBD9D9"/>
<rect x="230.19" y="46.2042" width="5.81009" height="5.53341" fill="#DBD9D9"/>
<rect x="230.19" y="138.335" width="5.81009" height="5.81009" fill="#DBD9D9"/>
<rect x="46.2039" y="138.335" width="5.81009" height="5.81009" fill="#DBD9D9"/>
<rect x="414.453" y="138.335" width="5.81009" height="5.81009" fill="#DBD9D9"/>
<rect x="149.956" y="161.022" width="5.81009" height="5.81009" fill="#DBD9D9"/>
<rect x="149.956" y="69.1678" width="5.81009" height="5.81009" fill="#DBD9D9"/>
<rect x="333.941" y="161.022" width="5.53341" height="5.81009" fill="#DBD9D9"/>
<rect x="333.941" y="69.1678" width="5.53341" height="5.81009" fill="#DBD9D9"/>
<rect x="241.81" y="161.022" width="5.81009" height="5.81009" fill="#DBD9D9"/>
<rect x="57.5476" y="161.022" width="5.81009" height="5.81009" fill="#DBD9D9"/>
<rect x="241.81" y="69.1678" width="5.81009" height="5.81009" fill="#DBD9D9"/>
<rect x="57.5476" y="69.1678" width="5.81009" height="5.81009" fill="#DBD9D9"/>
<rect x="149.956" y="23.2401" width="5.81009" height="5.81009" fill="#DBD9D9"/>
<rect x="149.956" y="207.503" width="5.81009" height="5.53341" fill="#DBD9D9"/>
<rect x="149.956" y="115.372" width="5.81009" height="5.81009" fill="#DBD9D9"/>
<rect x="333.941" y="207.503" width="5.53341" height="5.53341" fill="#DBD9D9"/>
<rect x="333.941" y="115.372" width="5.53341" height="5.81009" fill="#DBD9D9"/>
<rect x="241.81" y="207.503" width="5.81009" height="5.53341" fill="#DBD9D9"/>
<rect x="241.81" y="115.372" width="5.81009" height="5.81009" fill="#DBD9D9"/>
<rect x="57.5476" y="115.372" width="5.81009" height="5.81009" fill="#DBD9D9"/>
<rect x="149.956" width="5.81009" height="5.81009" fill="#DBD9D9"/>
<rect x="149.956" y="184.539" width="5.81009" height="5.81009" fill="#DBD9D9"/>
<rect x="149.956" y="92.1316" width="5.81009" height="6.08676" fill="#DBD9D9"/>
<rect x="333.941" y="184.539" width="5.53341" height="5.81009" fill="#DBD9D9"/>
<rect x="333.941" y="92.1316" width="5.53341" height="6.08676" fill="#DBD9D9"/>
<rect x="241.81" y="184.539" width="5.81009" height="5.81009" fill="#DBD9D9"/>
<rect x="241.81" y="92.1316" width="5.81009" height="6.08676" fill="#DBD9D9"/>
<rect x="57.5476" y="92.1316" width="5.81009" height="6.08676" fill="#DBD9D9"/>
<rect x="149.956" y="46.2042" width="5.81009" height="5.53341" fill="#DBD9D9"/>
<rect x="149.956" y="230.467" width="5.81009" height="5.53341" fill="#DBD9D9"/>
<rect x="149.956" y="138.335" width="5.81009" height="5.81009" fill="#DBD9D9"/>
<rect x="333.941" y="138.335" width="5.53341" height="5.81009" fill="#DBD9D9"/>
<rect x="241.81" y="46.2042" width="5.81009" height="5.53341" fill="#DBD9D9"/>
<rect x="57.5476" y="46.2042" width="5.81009" height="5.53341" fill="#DBD9D9"/>
<rect x="241.81" y="138.335" width="5.81009" height="5.81009" fill="#DBD9D9"/>
<rect x="57.5476" y="138.335" width="5.81009" height="5.81009" fill="#DBD9D9"/>
<rect x="161.299" y="161.022" width="5.53341" height="5.81009" fill="#DBD9D9"/>
<rect x="161.299" y="69.1678" width="5.53341" height="5.81009" fill="#DBD9D9"/>
<rect x="345.285" y="161.022" width="5.81009" height="5.81009" fill="#DBD9D9"/>
<rect x="345.285" y="69.1678" width="5.81009" height="5.81009" fill="#DBD9D9"/>
<rect x="253.43" y="161.022" width="5.81009" height="5.81009" fill="#DBD9D9"/>
<rect x="69.1675" y="161.022" width="5.81009" height="5.81009" fill="#DBD9D9"/>
<rect x="253.43" y="69.1678" width="5.81009" height="5.81009" fill="#DBD9D9"/>
<rect x="69.1675" y="69.1678" width="5.81009" height="5.81009" fill="#DBD9D9"/>
<rect x="161.299" y="23.2401" width="5.53341" height="5.81009" fill="#DBD9D9"/>
<rect x="161.299" y="207.503" width="5.53341" height="5.53341" fill="#DBD9D9"/>
<rect x="161.299" y="115.372" width="5.53341" height="5.81009" fill="#DBD9D9"/>
<rect x="345.285" y="207.503" width="5.81009" height="5.53341" fill="#DBD9D9"/>
<rect x="345.285" y="115.372" width="5.81009" height="5.81009" fill="#DBD9D9"/>
<rect x="253.43" y="207.503" width="5.81009" height="5.53341" fill="#DBD9D9"/>
<rect x="253.43" y="115.372" width="5.81009" height="5.81009" fill="#DBD9D9"/>
<rect x="69.1675" y="115.372" width="5.81009" height="5.81009" fill="#DBD9D9"/>
<rect x="161.299" y="184.539" width="5.53341" height="5.81009" fill="#DBD9D9"/>
<rect x="161.299" y="92.1316" width="5.53341" height="6.08676" fill="#DBD9D9"/>
<rect x="345.285" y="184.539" width="5.81009" height="5.81009" fill="#DBD9D9"/>
<rect x="345.285" y="92.1316" width="5.81009" height="6.08676" fill="#DBD9D9"/>
<rect x="253.43" y="184.539" width="5.81009" height="5.81009" fill="#DBD9D9"/>
<rect x="69.1675" y="184.539" width="5.81009" height="5.81009" fill="#DBD9D9"/>
<rect x="253.43" y="92.1316" width="5.81009" height="6.08676" fill="#DBD9D9"/>
<rect x="69.1675" y="92.1316" width="5.81009" height="6.08676" fill="#DBD9D9"/>
<rect x="161.299" y="46.2042" width="5.53341" height="5.53341" fill="#DBD9D9"/>
<rect x="161.299" y="230.467" width="5.53341" height="5.53341" fill="#DBD9D9"/>
<rect x="161.299" y="138.335" width="5.53341" height="5.81009" fill="#DBD9D9"/>
<rect x="345.285" y="138.335" width="5.81009" height="5.81009" fill="#DBD9D9"/>
<rect x="253.43" y="46.2042" width="5.81009" height="5.53341" fill="#DBD9D9"/>
<rect x="69.1675" y="46.2042" width="5.81009" height="5.53341" fill="#DBD9D9"/>
<rect x="253.43" y="138.335" width="5.81009" height="5.81009" fill="#DBD9D9"/>
<rect x="69.1675" y="138.335" width="5.81009" height="5.81009" fill="#DBD9D9"/>
<rect x="172.643" y="161.022" width="5.81009" height="5.81009" fill="#DBD9D9"/>
<rect x="172.643" y="69.1678" width="5.81009" height="5.81009" fill="#DBD9D9"/>
<rect x="356.905" y="161.022" width="5.81009" height="5.81009" fill="#DBD9D9"/>
<rect x="265.051" y="161.022" width="5.53341" height="5.81009" fill="#DBD9D9"/>
<rect x="80.7878" y="161.022" width="5.53341" height="5.81009" fill="#DBD9D9"/>
<rect x="265.051" y="69.1678" width="5.53341" height="5.81009" fill="#DBD9D9"/>
<rect x="80.7878" y="69.1678" width="5.53341" height="5.81009" fill="#DBD9D9"/>
<rect x="172.643" y="23.2401" width="5.81009" height="5.81009" fill="#DBD9D9"/>
<rect x="172.643" y="207.503" width="5.81009" height="5.53341" fill="#DBD9D9"/>
<rect x="172.643" y="115.372" width="5.81009" height="5.81009" fill="#DBD9D9"/>
<rect x="356.905" y="115.372" width="5.81009" height="5.81009" fill="#DBD9D9"/>
<rect x="265.051" y="207.503" width="5.53341" height="5.53341" fill="#DBD9D9"/>
<rect x="265.051" y="115.372" width="5.53341" height="5.81009" fill="#DBD9D9"/>
<rect x="80.7878" y="115.372" width="5.53341" height="5.81009" fill="#DBD9D9"/>
<rect x="172.643" y="184.539" width="5.81009" height="5.81009" fill="#DBD9D9"/>
<rect x="172.643" y="92.1316" width="5.81009" height="6.08676" fill="#DBD9D9"/>
<rect x="356.905" y="184.539" width="5.81009" height="5.81009" fill="#DBD9D9"/>
<rect x="265.051" y="184.539" width="5.53341" height="5.81009" fill="#DBD9D9"/>
<rect x="80.7878" y="184.539" width="5.53341" height="5.81009" fill="#DBD9D9"/>
<rect x="265.051" y="92.1316" width="5.53341" height="6.08676" fill="#DBD9D9"/>
<rect x="80.7878" y="92.1316" width="5.53341" height="6.08676" fill="#DBD9D9"/>
<rect x="172.643" y="46.2042" width="5.81009" height="5.53341" fill="#DBD9D9"/>
<rect x="172.643" y="138.335" width="5.81009" height="5.81009" fill="#DBD9D9"/>
<rect x="356.905" y="138.335" width="5.81009" height="5.81009" fill="#DBD9D9"/>
<rect x="265.051" y="46.2042" width="5.53341" height="5.53341" fill="#DBD9D9"/>
<rect x="80.7878" y="46.2042" width="5.53341" height="5.53341" fill="#DBD9D9"/>
<rect x="265.051" y="138.335" width="5.53341" height="5.81009" fill="#DBD9D9"/>
<rect x="80.7878" y="138.335" width="5.53341" height="5.81009" fill="#DBD9D9"/>
<rect x="184.263" y="161.022" width="5.81009" height="5.81009" fill="#DBD9D9"/>
<rect x="184.263" y="69.1678" width="5.81009" height="5.81009" fill="#DBD9D9"/>
<rect y="69.1678" width="5.81009" height="5.81009" fill="#DBD9D9"/>
<rect x="368.525" y="161.022" width="5.53341" height="5.81009" fill="#DBD9D9"/>
<rect x="276.117" y="161.022" width="5.81009" height="5.81009" fill="#DBD9D9"/>
<rect x="92.1313" y="161.022" width="5.81009" height="5.81009" fill="#DBD9D9"/>
<rect x="92.1313" y="69.1678" width="5.81009" height="5.81009" fill="#DBD9D9"/>
<rect x="184.263" y="23.2401" width="5.81009" height="5.81009" fill="#DBD9D9"/>
<rect x="184.263" y="115.372" width="5.81009" height="5.81009" fill="#DBD9D9"/>
<rect x="368.525" y="115.372" width="5.53341" height="5.81009" fill="#DBD9D9"/>
<rect x="276.117" y="207.503" width="5.81009" height="5.53341" fill="#DBD9D9"/>
<rect x="276.117" y="115.372" width="5.81009" height="5.81009" fill="#DBD9D9"/>
<rect x="92.1313" y="115.372" width="5.81009" height="5.81009" fill="#DBD9D9"/>
<rect x="184.263" width="5.81009" height="5.81009" fill="#DBD9D9"/>
<rect x="184.263" y="184.539" width="5.81009" height="5.81009" fill="#DBD9D9"/>
<rect x="184.263" y="92.1316" width="5.81009" height="6.08676" fill="#DBD9D9"/>
<rect x="368.525" y="184.539" width="5.53341" height="5.81009" fill="#DBD9D9"/>
<rect x="368.525" y="92.1316" width="5.53341" height="6.08676" fill="#DBD9D9"/>
<rect x="276.117" y="184.539" width="5.81009" height="5.81009" fill="#DBD9D9"/>
<rect x="92.1313" y="184.539" width="5.81009" height="5.81009" fill="#DBD9D9"/>
<rect x="276.117" y="92.1316" width="5.81009" height="6.08676" fill="#DBD9D9"/>
<rect x="92.1313" y="92.1316" width="5.81009" height="6.08676" fill="#DBD9D9"/>
<rect x="184.263" y="46.2042" width="5.81009" height="5.53341" fill="#DBD9D9"/>
<rect x="184.263" y="138.335" width="5.81009" height="5.81009" fill="#DBD9D9"/>
<rect x="368.525" y="138.335" width="5.53341" height="5.81009" fill="#DBD9D9"/>
<rect x="92.1313" y="46.2042" width="5.81009" height="5.53341" fill="#DBD9D9"/>
<rect x="276.117" y="138.335" width="5.81009" height="5.81009" fill="#DBD9D9"/>
<rect x="92.1313" y="138.335" width="5.81009" height="5.81009" fill="#DBD9D9"/>
<path d="M369.192 120.627L360 130L350.808 120.627C348.989 118.774 347.751 116.412 347.25 113.841C346.748 111.269 347.006 108.604 347.99 106.182C348.974 103.76 350.64 101.69 352.778 100.234C354.915 98.7774 357.429 98 360 98C362.571 98 365.085 98.7774 367.222 100.234C369.36 101.69 371.026 103.76 372.01 106.182C372.994 108.604 373.252 111.269 372.75 113.841C372.249 116.412 371.011 118.774 369.192 120.627V120.627ZM360 117.146C361.532 117.146 363.002 116.525 364.086 115.42C365.169 114.316 365.778 112.817 365.778 111.255C365.778 109.692 365.169 108.194 364.086 107.089C363.002 105.984 361.532 105.364 360 105.364C358.468 105.364 356.998 105.984 355.914 107.089C354.831 108.194 354.222 109.692 354.222 111.255C354.222 112.817 354.831 114.316 355.914 115.42C356.998 116.525 358.468 117.146 360 117.146V117.146ZM360 114.2C359.234 114.2 358.499 113.89 357.957 113.338C357.415 112.785 357.111 112.036 357.111 111.255C357.111 110.474 357.415 109.724 357.957 109.172C358.499 108.62 359.234 108.309 360 108.309C360.766 108.309 361.501 108.62 362.043 109.172C362.585 109.724 362.889 110.474 362.889 111.255C362.889 112.036 362.585 112.785 362.043 113.338C361.501 113.89 360.766 114.2 360 114.2Z" fill="#169FE6"/>
</svg>
