<svg width="18" height="15" viewBox="0 0 18 15" fill="none" xmlns="http://www.w3.org/2000/svg">
<path d="M18 14.1725C17.9985 14.3914 17.9125 14.6008 17.7607 14.7557C17.6088 14.9105 17.4032 14.9983 17.1884 15H2.448C2.23267 14.9998 2.02622 14.9125 1.87404 14.7573C1.72185 14.6022 1.63636 14.3918 1.63636 14.1725V13.3333H16.3636V3.58333L9.81818 9.58333L1.63636 2.08333V0.833333C1.63636 0.61232 1.72256 0.400358 1.876 0.244078C2.02944 0.0877973 2.23755 0 2.45455 0H17.1818C17.3988 0 17.6069 0.0877973 17.7604 0.244078C17.9138 0.400358 18 0.61232 18 0.833333V14.1725ZM3.62782 1.66667L9.81818 7.34167L16.0085 1.66667H3.62782ZM0 10H6.54545V11.6667H0V10ZM0 5.83333H4.09091V7.5H0V5.83333Z" fill="white"/>
</svg>
