<svg width="797" height="798" viewBox="0 0 797 798" fill="none" xmlns="http://www.w3.org/2000/svg">
<path d="M797 398.5C797 618.585 618.585 797 398.5 797C178.415 797 0 618.585 0 398.5C0 178.415 178.415 0 398.5 0C618.585 0 797 178.415 797 398.5Z" fill="#E3E3E3"/>
<path d="M242.5 380.004C242.5 372.504 240.046 360.755 252.5 331.004C239.535 267.962 239.138 230.167 262.5 188.504C277.64 161.504 332 119.504 399 120.004C465 120.004 519.36 161.504 534.5 188.504C557.862 230.167 557.465 267.962 544.5 331.004C556.954 360.755 554.5 372.504 554.5 380.004C554.5 393.004 545.651 425.016 525 438.504C509.679 489.036 502 513.504 486.5 537.004C500.2 596.93 513.908 606.237 543.569 626.372L544.5 627.004L674 693C580.075 769.287 516.5 797.004 398.5 797.004C281.5 793.004 219.925 772.787 126 696.5L252.5 627.004L253.431 626.372C283.092 606.237 296.8 596.93 310.5 537.004C295 513.504 287.321 489.036 272 438.504C251.349 425.016 242.5 393.004 242.5 380.004Z" fill="#4A4A4A"/>
</svg>
